<svg xmlns="http://www.w3.org/2000/svg" width="102.174" height="102.174" viewBox="0 0 102.174 102.174">
  <g id="BG" transform="translate(22.116 31.56)">
    <path id="qr-code-scanning-online-barcode" d="M18.554,53.454h1a2.542,2.542,0,0,0-.146.851v3.4a2.557,2.557,0,0,0,2.554,2.554h1.7a4.259,4.259,0,0,0,.851-.086v2.639a4.261,4.261,0,0,0,4.256,4.256H66.222A.851.851,0,0,0,67,65.887L61.966,54.13V28.768a.851.851,0,0,0-.851-.851,8.465,8.465,0,0,0-5.959,2.426V20.256A4.261,4.261,0,0,0,50.9,16H28.768a4.261,4.261,0,0,0-4.256,4.256V31.408a4.259,4.259,0,0,0-.851-.086h-3.4A2.557,2.557,0,0,0,17.7,33.876v3.4a2.538,2.538,0,0,0,.181.941A2.558,2.558,0,0,0,16,40.685v3.4a2.543,2.543,0,0,0,.652,1.7A2.543,2.543,0,0,0,16,47.5v3.4A2.557,2.557,0,0,0,18.554,53.454ZM17.7,50.9V47.5a.852.852,0,0,1,.851-.851h5.959a2.554,2.554,0,0,1,0,5.107H18.554A.852.852,0,0,1,17.7,50.9Zm4.256,7.661a.852.852,0,0,1-.851-.851V54.3a.852.852,0,0,1,.851-.851h1.7a2.554,2.554,0,1,1,0,5.107Zm38.3-28.889V54.3a.853.853,0,0,0,.069.335l4.6,10.731H54.3a4.233,4.233,0,0,0,.854-2.554V33.131a6.765,6.765,0,0,1,5.107-3.459ZM46.118,17.7l-.851,1.7H34.4l-.851-1.7Zm-19.9,2.554A2.557,2.557,0,0,1,28.768,17.7h2.879l1.467,2.934a.851.851,0,0,0,.761.471H45.793a.851.851,0,0,0,.761-.47L48.021,17.7H50.9a2.557,2.557,0,0,1,2.554,2.554V62.817A2.557,2.557,0,0,1,50.9,65.371H28.768a2.557,2.557,0,0,1-2.554-2.554v-3.4h0a4.249,4.249,0,0,0,.369-6.5,4.287,4.287,0,0,0,1.336-1.167V54.3a.851.851,0,0,0,.851.851h5.107a.851.851,0,1,0,0-1.7H29.62V49.2a.851.851,0,0,0-.851-.851c-.029,0-.057,0-.085,0a4.264,4.264,0,0,0-1.62-2.558,4.252,4.252,0,0,0-.482-7.122,4.249,4.249,0,0,0-.366-6.495ZM19.4,33.876a.852.852,0,0,1,.851-.851h3.4a2.554,2.554,0,0,1,0,5.107h-3.4a.852.852,0,0,1-.851-.851Zm-1.7,6.81a.852.852,0,0,1,.851-.851h5.959a2.554,2.554,0,1,1,0,5.107H18.554a.852.852,0,0,1-.851-.851ZM51.751,49.2V54.3a.851.851,0,0,1-.851.851H45.793a.851.851,0,1,1,0-1.7h4.256V49.2a.851.851,0,0,1,1.7,0Zm-6.81-17.024a.851.851,0,0,1,.851-.851H50.9a.851.851,0,0,1,.851.851V37.28a.851.851,0,0,1-1.7,0V33.024H45.793A.851.851,0,0,1,44.941,32.173ZM27.917,37.28V32.173a.851.851,0,0,1,.851-.851h5.107a.851.851,0,0,1,0,1.7H29.62V37.28a.851.851,0,1,1-1.7,0Zm3.4-1.7v3.4a.851.851,0,0,0,.851.851h3.4a.851.851,0,0,0,.851-.851v-3.4a.851.851,0,0,0-.851-.851h-3.4A.851.851,0,0,0,31.322,35.578Zm1.7.851h1.7v1.7h-1.7Zm2.554,10.215h-3.4a.851.851,0,0,0-.851.851v3.4a.851.851,0,0,0,.851.851h3.4a.851.851,0,0,0,.851-.851V47.5A.851.851,0,0,0,35.578,46.644Zm-.851,3.4h-1.7v-1.7h1.7ZM44.09,39.834h3.4a.851.851,0,0,0,.851-.851v-3.4a.851.851,0,0,0-.851-.851h-3.4a.851.851,0,0,0-.851.851v3.4A.851.851,0,0,0,44.09,39.834Zm.851-3.4h1.7v1.7h-1.7Zm-6.81,1.7v-1.7a.851.851,0,0,1,1.7,0v.851h.851a.851.851,0,0,1,.851.851v2.554a.851.851,0,1,1,0,1.7h-.851a.851.851,0,0,1-.851-.851V38.983h-.851A.851.851,0,0,1,38.132,38.132Zm-2.554,5.107h1.7a.851.851,0,1,1,1.7,0v.851a.851.851,0,0,1-.851.851h-3.4a.851.851,0,0,1-.851-.851v-.851h-1.7a.851.851,0,0,1,0-1.7h2.554a.851.851,0,0,1,.851.851Zm6.81,3.4a.851.851,0,0,1-.851.851h-.851v3.4a.851.851,0,0,1-.851.851h-.851a.851.851,0,0,1,0-1.7v-3.4a.851.851,0,0,1,.851-.851h.851v-.851a.851.851,0,0,1,1.7,0Zm0,3.4a.851.851,0,0,1,1.7,0h2.554v-1.7h-1.7a.851.851,0,0,1-.851-.851V42.388a.851.851,0,1,1,1.7,0v.851h.851v-.851a.851.851,0,1,1,1.7,0v1.7a.851.851,0,0,1-.851.851h-1.7v1.7h1.7a.851.851,0,0,1,.851.851v3.4a.851.851,0,0,1-.851.851H43.239a.851.851,0,0,1-.851-.851Z" transform="translate(-12.566 -22.01)" fill="#fff"/>
    <g id="Caminho_188" data-name="Caminho 188" transform="translate(-22.116 -31.56)" fill="none">
      <path d="M51.087,0A51.087,51.087,0,1,1,0,51.087,51.087,51.087,0,0,1,51.087,0Z" stroke="none"/>
      <path d="M 51.08682250976562 2.999992370605469 C 44.59382247924805 2.999992370605469 38.29663848876953 4.270973205566406 32.37017822265625 6.777671813964844 C 26.64439392089844 9.199470520019531 21.50148773193359 12.6671142578125 17.08429718017578 17.08429718017578 C 12.6671142578125 21.50148773193359 9.199470520019531 26.64439392089844 6.777671813964844 32.37017822265625 C 4.270973205566406 38.29663848876953 2.999992370605469 44.59382247924805 2.999992370605469 51.08682250976562 C 2.999992370605469 57.5798225402832 4.270973205566406 63.87700653076172 6.777671813964844 69.80345153808594 C 9.199470520019531 75.52923583984375 12.6671142578125 80.67216491699219 17.08429718017578 85.08933258056641 C 21.50148773193359 89.50651550292969 26.64439392089844 92.97415924072266 32.37017822265625 95.39595794677734 C 38.29663848876953 97.90265655517578 44.59382247924805 99.17363739013672 51.08682250976562 99.17363739013672 C 57.5798225402832 99.17363739013672 63.87700653076172 97.90265655517578 69.80345153808594 95.39595794677734 C 75.52923583984375 92.97415924072266 80.67216491699219 89.50651550292969 85.08933258056641 85.08933258056641 C 89.50651550292969 80.67216491699219 92.97415924072266 75.52923583984375 95.39595794677734 69.80345153808594 C 97.90265655517578 63.87700653076172 99.17363739013672 57.5798225402832 99.17363739013672 51.08682250976562 C 99.17363739013672 44.59382247924805 97.90265655517578 38.29663848876953 95.39595794677734 32.37017822265625 C 92.97415924072266 26.64439392089844 89.50651550292969 21.50148773193359 85.08933258056641 17.08429718017578 C 80.67216491699219 12.6671142578125 75.52923583984375 9.199470520019531 69.80345153808594 6.777671813964844 C 63.87700653076172 4.270973205566406 57.5798225402832 2.999992370605469 51.08682250976562 2.999992370605469 M 51.08682250976562 -7.62939453125e-06 C 79.30128479003906 -7.62939453125e-06 102.1736373901367 22.87234497070312 102.1736373901367 51.08682250976562 C 102.1736373901367 79.30128479003906 79.30128479003906 102.1736373901367 51.08682250976562 102.1736373901367 C 22.87234497070312 102.1736373901367 -7.62939453125e-06 79.30128479003906 -7.62939453125e-06 51.08682250976562 C -7.62939453125e-06 22.87234497070312 22.87234497070312 -7.62939453125e-06 51.08682250976562 -7.62939453125e-06 Z" stroke="none" fill="#fff"/>
    </g>
  </g>
</svg>
