<svg xmlns="http://www.w3.org/2000/svg" xmlns:xlink="http://www.w3.org/1999/xlink" width="106" height="106" viewBox="0 0 106 106">
  <defs>
    <clipPath id="clip-path">
      <rect id="Retângulo_47" data-name="Retângulo 47" width="40.934" height="49.415" fill="none" stroke="#1a6223" stroke-width="3"/>
    </clipPath>
  </defs>
  <g id="Grupo_143" data-name="Grupo 143" transform="translate(-928 -663)">
    <g id="BG" transform="translate(959.944 691.292)">
      <g id="Grupo_128" data-name="Grupo 128" transform="translate(0 0)">
        <g id="Grupo_127" data-name="Grupo 127" clip-path="url(#clip-path)">
          <circle id="Elipse_3" data-name="Elipse 3" cx="8.926" cy="8.926" r="8.926" transform="translate(11.542 2.471)" fill="none" stroke="#1a6223" stroke-linecap="round" stroke-linejoin="round" stroke-width="3"/>
          <line id="Linha_11" data-name="Linha 11" y1="16.051" transform="translate(20.467 20.868)" fill="none" stroke="#1a6223" stroke-linecap="round" stroke-linejoin="round" stroke-width="3"/>
          <path id="Caminho_180" data-name="Caminho 180" d="M5.631,25.585C3.361,27.189,2,29.177,2,31.339c0,5.292,8.057,9.583,18,9.583s18-4.29,18-9.583c0-2.127-1.3-4.092-3.5-5.682-.036-.026-.078-.048-.114-.073" transform="translate(0.471 6.022)" fill="none" stroke="#1a6223" stroke-linecap="round" stroke-linejoin="round" stroke-width="3"/>
        </g>
      </g>
    </g>
    <g id="Caminho_187" data-name="Caminho 187" transform="translate(928 663)" fill="none">
      <path d="M53,0A53,53,0,1,1,0,53,53,53,0,0,1,53,0Z" stroke="none"/>
      <path d="M 53.00000381469727 3.000007629394531 C 46.24872207641602 3.000007629394531 39.70098876953125 4.321586608886719 33.53867340087891 6.928024291992188 C 27.58505249023438 9.446189880371094 22.23753356933594 13.05178833007812 17.6446533203125 17.6446533203125 C 13.05178833007812 22.23753356933594 9.446189880371094 27.58505249023438 6.928024291992188 33.53867340087891 C 4.321586608886719 39.70098876953125 3.000007629394531 46.24872207641602 3.000007629394531 53.00000381469727 C 3.000007629394531 59.75128555297852 4.321586608886719 66.29901885986328 6.928024291992188 72.46133422851562 C 9.446189880371094 78.41493988037109 13.05178833007812 83.762451171875 17.6446533203125 88.35533905029297 C 22.23753356933594 92.94821929931641 27.58505249023438 96.55381774902344 33.53867340087891 99.07199096679688 C 39.70098876953125 101.6784210205078 46.24872207641602 103 53.00000381469727 103 C 59.75128555297852 103 66.29901885986328 101.6784210205078 72.46133422851562 99.07199096679688 C 78.41493988037109 96.55381774902344 83.762451171875 92.94821929931641 88.35533905029297 88.35533905029297 C 92.94821929931641 83.762451171875 96.55381774902344 78.41493988037109 99.07199096679688 72.46133422851562 C 101.6784210205078 66.29901885986328 103 59.75128555297852 103 53.00000381469727 C 103 46.24872207641602 101.6784210205078 39.70098876953125 99.07199096679688 33.53867340087891 C 96.55381774902344 27.58505249023438 92.94821929931641 22.23753356933594 88.35533905029297 17.6446533203125 C 83.762451171875 13.05178833007812 78.41493988037109 9.446189880371094 72.46133422851562 6.928024291992188 C 66.29901885986328 4.321586608886719 59.75128555297852 3.000007629394531 53.00000381469727 3.000007629394531 M 53.00000381469727 7.62939453125e-06 C 82.27108764648438 7.62939453125e-06 106 23.72890472412109 106 53.00000381469727 C 106 82.27108764648438 82.27108764648438 106 53.00000381469727 106 C 23.72890472412109 106 7.62939453125e-06 82.27108764648438 7.62939453125e-06 53.00000381469727 C 7.62939453125e-06 23.72890472412109 23.72890472412109 7.62939453125e-06 53.00000381469727 7.62939453125e-06 Z" stroke="none" fill="#1a6223"/>
    </g>
  </g>
</svg>
