<svg xmlns="http://www.w3.org/2000/svg" xmlns:xlink="http://www.w3.org/1999/xlink" width="106" height="106" viewBox="0 0 106 106">
  <defs>
    <clipPath id="clip-path">
      <rect id="Retângulo_39" data-name="Retângulo 39" width="46.025" height="33.948" fill="none" stroke="#1a6223" stroke-width="3"/>
    </clipPath>
  </defs>
  <g id="Grupo_132" data-name="Grupo 132" transform="translate(-9 -5)">
    <g id="BG" transform="translate(38.399 41.061)">
      <g id="Grupo_113" data-name="Grupo 113" transform="translate(0 0)">
        <g id="Grupo_112" data-name="Grupo 112" transform="translate(0 0)" clip-path="url(#clip-path)">
          <path id="Caminho_155" data-name="Caminho 155" d="M2,4.773V26.325a4.6,4.6,0,0,0,4.6,4.6" transform="translate(0.301 0.719)" fill="none" stroke="#1a6223" stroke-linecap="round" stroke-linejoin="round" stroke-width="3"/>
          <path id="Caminho_156" data-name="Caminho 156" d="M14.329,30.928H36.963a4.6,4.6,0,0,0,4.6-4.6V4.773" transform="translate(2.158 0.719)" fill="none" stroke="#1a6223" stroke-linecap="round" stroke-linejoin="round" stroke-width="3"/>
          <path id="Caminho_157" data-name="Caminho 157" d="M43.422,5.191,30.407,15.39,22.711,2l-7.7,13.39L2,5.191" transform="translate(0.301 0.301)" fill="none" stroke="#1a6223" stroke-linecap="round" stroke-linejoin="round" stroke-width="3"/>
        </g>
      </g>
    </g>
    <g id="Caminho_186" data-name="Caminho 186" transform="translate(9 5)" fill="none">
      <path d="M53,0A53,53,0,1,1,0,53,53,53,0,0,1,53,0Z" stroke="none"/>
      <path d="M 53 3 C 46.24871826171875 3 39.70098114013672 4.321586608886719 33.53866577148438 6.928016662597656 C 27.58506774902344 9.446182250976562 22.237548828125 13.05178070068359 17.64466857910156 17.64466857910156 C 13.05178070068359 22.237548828125 9.446182250976562 27.58506774902344 6.928016662597656 33.53866577148438 C 4.321586608886719 39.70098114013672 3 46.24871826171875 3 53 C 3 59.75128173828125 4.321586608886719 66.29901123046875 6.928016662597656 72.46133422851562 C 9.446182250976562 78.41493225097656 13.05178070068359 83.762451171875 17.64466857910156 88.35533142089844 C 22.237548828125 92.94821929931641 27.58506774902344 96.55381774902344 33.53866577148438 99.07198333740234 C 39.70098114013672 101.6784133911133 46.24871826171875 103 53 103 C 59.75128173828125 103 66.29901123046875 101.6784133911133 72.46133422851562 99.07198333740234 C 78.41493225097656 96.55381774902344 83.762451171875 92.94821929931641 88.35533142089844 88.35533142089844 C 92.94821929931641 83.762451171875 96.55381774902344 78.41493225097656 99.07198333740234 72.46133422851562 C 101.6784133911133 66.29901123046875 103 59.75128173828125 103 53 C 103 46.24871826171875 101.6784133911133 39.70098114013672 99.07198333740234 33.53866577148438 C 96.55381774902344 27.58506774902344 92.94821929931641 22.237548828125 88.35533142089844 17.64466857910156 C 83.762451171875 13.05178070068359 78.41493225097656 9.446182250976562 72.46133422851562 6.928016662597656 C 66.29901123046875 4.321586608886719 59.75128173828125 3 53 3 M 53 0 C 82.27108764648438 0 106 23.72891998291016 106 53 C 106 82.27108764648438 82.27108764648438 106 53 106 C 23.72891998291016 106 0 82.27108764648438 0 53 C 0 23.72891998291016 23.72891998291016 0 53 0 Z" stroke="none" fill="#1a6223"/>
    </g>
  </g>
</svg>
