<svg xmlns="http://www.w3.org/2000/svg" width="32.272" height="39.658" viewBox="0 0 32.272 39.658">
  <g id="_021-beer" data-name="021-beer" transform="translate(0.5 0.5)">
    <path id="Caminho_159" data-name="Caminho 159" d="M166.859,57.379a3.189,3.189,0,0,0-2.272.942.755.755,0,0,0,1.069,1.067,1.7,1.7,0,0,1,2.407,0,.755.755,0,0,0,1.069-1.067A3.189,3.189,0,0,0,166.859,57.379Z" transform="translate(-155.649 -53.047)" fill="#1a6223" stroke="#1a6223" stroke-width="1"/>
    <path id="Caminho_160" data-name="Caminho 160" d="M281.978,236.593a.755.755,0,1,0-1.51,0v0a.755.755,0,1,0,1.51,0Z" transform="translate(-262.985 -218.031)" fill="#1a6223" stroke="#1a6223" stroke-width="1"/>
    <path id="Caminho_161" data-name="Caminho 161" d="M75.789,12.555H71.921V11.381a3.844,3.844,0,0,0-2.5-6.764q-.137,0-.273.009a4.344,4.344,0,0,0-5.054-2.373,4.341,4.341,0,0,0-7.811.415c-.341.677-1.345.82-3.066.847a4.337,4.337,0,0,0-2.954,7.475v7.589a.755.755,0,1,0,1.51,0V11.932a4.319,4.319,0,0,0,1.486.262h1.119a.172.172,0,0,1,.17.17v1.209a2.436,2.436,0,0,0,2.409,2.512,2.41,2.41,0,0,0,2.407-2.407v-1.9a.968.968,0,1,1,1.936,0v3.33a2.5,2.5,0,1,0,5,0V12.967a.658.658,0,0,1,.658-.657H69.42a3.835,3.835,0,0,0,.991-.13V33.293a.469.469,0,0,1-.467.469H52.238a.469.469,0,0,1-.467-.469V25.359a.755.755,0,0,0-1.51,0v7.934a1.982,1.982,0,0,0,1.222,1.829v1.456a2.082,2.082,0,0,0,2.08,2.08H68.619a2.082,2.082,0,0,0,2.08-2.08V35.122a1.982,1.982,0,0,0,1.222-1.829v-.679h3.868a4.4,4.4,0,0,0,4.4-4.4V16.952a4.4,4.4,0,0,0-4.4-4.4Zm-6.6,24.024a.577.577,0,0,1-.57.57H53.563a.577.577,0,0,1-.57-.57V35.273h16.2v1.306ZM69.42,10.8H66.954a2.17,2.17,0,0,0-2.168,2.168V15.11a.989.989,0,1,1-1.978,0v-3.33a2.478,2.478,0,1,0-4.956,0v1.9a.9.9,0,0,1-.9.9.934.934,0,0,1-.9-1V12.364a1.681,1.681,0,0,0-1.68-1.68H53.257a2.83,2.83,0,0,1-.023-5.66C54.76,5,56.849,4.969,57.65,3.307c.007-.014.013-.027.018-.042a2.83,2.83,0,0,1,5.3.176.755.755,0,0,0,1.036.445,2.832,2.832,0,0,1,3.924,1.787.755.755,0,0,0,.912.525,2.337,2.337,0,1,1,.578,4.6Zm2.5,6.356h3.665V28.014H71.921Zm6.757,11.061a2.892,2.892,0,0,1-2.89,2.888H71.921v-1.58h3.868A1.325,1.325,0,0,0,77.1,28.217V16.952a1.325,1.325,0,0,0-1.307-1.307H71.921v-1.58h3.868a2.892,2.892,0,0,1,2.89,2.888Z" transform="translate(-48.917 0)" fill="#1a6223" stroke="#1a6223" stroke-width="1"/>
    <path id="Caminho_162" data-name="Caminho 162" d="M115.929,345.452a2.982,2.982,0,1,0,2.981,2.983A2.985,2.985,0,0,0,115.929,345.452Zm0,4.454a1.472,1.472,0,1,1,1.471-1.471A1.472,1.472,0,0,1,115.929,349.906Z" transform="translate(-108.113 -319.369)" fill="#1a6223" stroke="#1a6223" stroke-width="1"/>
    <path id="Caminho_163" data-name="Caminho 163" d="M234.435,281.683a2.448,2.448,0,1,0,2.448-2.448A2.451,2.451,0,0,0,234.435,281.683Zm3.386,0a.938.938,0,1,1-.938-.938A.939.939,0,0,1,237.821,281.683Z" transform="translate(-220.428 -258.151)" fill="#1a6223" stroke="#1a6223" stroke-width="1"/>
    <path id="Caminho_164" data-name="Caminho 164" d="M109.784,231.841a2.448,2.448,0,1,0,2.448,2.448A2.451,2.451,0,0,0,109.784,231.841Zm0,3.386a.938.938,0,1,1,.938-.938A.939.939,0,0,1,109.784,235.227Z" transform="translate(-102.925 -214.336)" fill="#1a6223" stroke="#1a6223" stroke-width="1"/>
    <path id="Caminho_165" data-name="Caminho 165" d="M189.743,307.741a.755.755,0,1,0-1.51,0v0a.755.755,0,1,0,1.51,0Z" transform="translate(-177.714 -283.807)" fill="#1a6223" stroke="#1a6223" stroke-width="1"/>
    <path id="Caminho_166" data-name="Caminho 166" d="M256.856,398v0a.755.755,0,1,0,.755-.759A.753.753,0,0,0,256.856,398Z" transform="translate(-241.156 -367.247)" fill="#1a6223" stroke="#1a6223" stroke-width="1"/>
    <path id="Caminho_167" data-name="Caminho 167" d="M67.472,282.477a.756.756,0,1,0-.755-.757v0A.753.753,0,0,0,67.472,282.477Z" transform="translate(-65.373 -259.751)" fill="#1a6223" stroke="#1a6223" stroke-width="1"/>
  </g>
</svg>
