<svg id="Grupo_124" data-name="Grupo 124" xmlns="http://www.w3.org/2000/svg" xmlns:xlink="http://www.w3.org/1999/xlink" width="29.914" height="26.146" viewBox="0 0 29.914 26.146">
  <defs>
    <clipPath id="clip-path">
      <rect id="Retângulo_43" data-name="Retângulo 43" width="29.914" height="26.146" fill="none" stroke="#30a33d" stroke-width="2"/>
    </clipPath>
  </defs>
  <g id="Grupo_123" data-name="Grupo 123" clip-path="url(#clip-path)">
    <path id="Caminho_175" data-name="Caminho 175" d="M27.274,15.665v9.943A2.992,2.992,0,0,1,24.283,28.6H8.315a2.992,2.992,0,0,1-2.991-2.991v-6.3" transform="translate(-1.342 -3.95)" fill="none" stroke="#30a33d" stroke-linecap="round" stroke-linejoin="round" stroke-width="2"/>
    <path id="Caminho_176" data-name="Caminho 176" d="M6.084,2a2.244,2.244,0,0,0-2.12,1.51L2.181,8.664a2.579,2.579,0,0,0,2.655,3.555,4.809,4.809,0,0,0,3.911-2.183,3.2,3.2,0,0,0,3.173,2.183,3.928,3.928,0,0,0,3.542-2.183A3.928,3.928,0,0,0,19,12.219a3.2,3.2,0,0,0,3.173-2.183,4.808,4.808,0,0,0,3.911,2.183,2.579,2.579,0,0,0,2.655-3.555L26.959,3.51A2.245,2.245,0,0,0,24.838,2Z" transform="translate(-0.504 -0.504)" fill="none" stroke="#30a33d" stroke-linecap="round" stroke-linejoin="round" stroke-width="2"/>
    <path id="Caminho_177" data-name="Caminho 177" d="M22.163,29.979h-6.4v-5.8a3.043,3.043,0,0,1,3.043-3.043h.311a3.043,3.043,0,0,1,3.043,3.043Z" transform="translate(-3.975 -5.329)" fill="none" stroke="#30a33d" stroke-linecap="round" stroke-linejoin="round" stroke-width="2"/>
  </g>
</svg>
