<svg xmlns="http://www.w3.org/2000/svg" width="16.515" height="16.877" viewBox="0 0 16.515 16.877">
  <g id="_007-beer_box" data-name="007-beer box" transform="translate(-5.5)">
    <path id="Caminho_86" data-name="Caminho 86" d="M46.755,260.584a.33.33,0,0,0-.33.33h0a.33.33,0,1,0,.33-.331Z" transform="translate(-39.576 -251.994)" fill="#3b3b3b"/>
    <path id="Caminho_87" data-name="Caminho 87" d="M46.755,400.188a.33.33,0,0,0-.33.33v0a.33.33,0,1,0,.33-.332Z" transform="translate(-39.576 -386.996)" fill="#3b3b3b"/>
    <path id="Caminho_88" data-name="Caminho 88" d="M445.877,260.584a.33.33,0,0,0-.33.33h0a.33.33,0,1,0,.33-.331Z" transform="translate(-425.542 -251.994)" fill="#3b3b3b"/>
    <path id="Caminho_89" data-name="Caminho 89" d="M445.877,400.188a.33.33,0,0,0-.33.33v0a.33.33,0,1,0,.33-.332Z" transform="translate(-425.542 -386.996)" fill="#3b3b3b"/>
    <path id="Caminho_90" data-name="Caminho 90" d="M22.015,9.829V8.012A.913.913,0,0,0,21.1,7.1h-.841c-.125-.362-.266-.7-.4-1.037a7.057,7.057,0,0,1-.715-2.832V1.894a.684.684,0,0,0,.354-.6V.684A.685.685,0,0,0,18.813,0H16.275a.685.685,0,0,0-.684.684v.611a.684.684,0,0,0,.354.6V3.231a7.057,7.057,0,0,1-.715,2.832c-.137.333-.278.676-.4,1.037H12.687c-.125-.362-.266-.705-.4-1.039a7.058,7.058,0,0,1-.714-2.831V1.894a.684.684,0,0,0,.354-.6V.684A.685.685,0,0,0,11.24,0H8.7a.685.685,0,0,0-.684.684v.611a.684.684,0,0,0,.354.6V3.231a7.057,7.057,0,0,1-.715,2.832c-.137.333-.278.676-.4,1.037H6.411a.912.912,0,0,0-.911.912V9.829a.912.912,0,0,0,.582.849v1.088a.912.912,0,0,0-.582.849V14.43a.913.913,0,0,0,.582.85v1.268a.33.33,0,0,0,.33.33H21.1a.33.33,0,0,0,.33-.33V15.28a.913.913,0,0,0,.582-.85V12.614a.912.912,0,0,0-.582-.849V10.678a.912.912,0,0,0,.582-.849ZM16.25.684a.026.026,0,0,1,.025-.024h2.538a.026.026,0,0,1,.025.024v.611a.026.026,0,0,1-.025.024H16.275a.026.026,0,0,1-.025-.024ZM18.49,3.5H16.6c0-.087.006-.176.006-.266V1.979h1.879V3.231C18.483,3.321,18.486,3.41,18.49,3.5Zm-2.65,2.817a9.6,9.6,0,0,0,.69-2.158h2.03a9.6,9.6,0,0,0,.69,2.158c.106.256.213.517.313.786H15.527c.1-.268.207-.53.313-.786ZM8.677.684A.026.026,0,0,1,8.7.659H11.24a.026.026,0,0,1,.025.024v.611a.026.026,0,0,1-.025.024H8.7a.026.026,0,0,1-.025-.024ZM10.916,3.5H9.025c0-.087.006-.176.006-.266V1.979H10.91V3.231C10.91,3.321,10.912,3.41,10.916,3.5ZM8.266,6.315a9.6,9.6,0,0,0,.69-2.158h2.03a9.6,9.6,0,0,0,.689,2.156c.106.256.214.518.313.788H7.953C8.053,6.832,8.16,6.57,8.266,6.315Zm12.507,9.9H6.741v-.876H20.773Zm.582-1.788a.256.256,0,0,1-.253.253H6.411a.256.256,0,0,1-.252-.253V12.614a.255.255,0,0,1,.252-.252H21.1a.252.252,0,0,1,.253.252Zm0-4.6a.252.252,0,0,1-.253.252H15.42a.33.33,0,0,0,0,.659h5.353V11.7H6.741v-.964h5.718a.33.33,0,0,0,0-.659H6.411a.255.255,0,0,1-.252-.252V8.012a.252.252,0,0,1,.252-.252H21.1a.253.253,0,0,1,.253.252V9.829Z" fill="#3b3b3b"/>
    <path id="Caminho_91" data-name="Caminho 91" d="M251.86,305.8a.33.33,0,1,0,0,.659h0a.33.33,0,1,0,0-.659Z" transform="translate(-237.92 -295.716)" fill="#3b3b3b"/>
  </g>
</svg>
