<svg xmlns="http://www.w3.org/2000/svg" width="55.747" height="57.496" viewBox="0 0 55.747 57.496">
  <g id="_047-beer" data-name="047-beer" transform="translate(-7.789)">
    <path id="Caminho_133" data-name="Caminho 133" d="M35.83,164.205a1.123,1.123,0,0,0-1.123-1.123H18.524l1.8-3.79a1.123,1.123,0,1,0-2.028-.966l-2.264,4.755H8.912a1.123,1.123,0,1,0,0,2.246h1.463L8.8,168.91a1.138,1.138,0,0,0-.095.452V191.2a1.138,1.138,0,0,0,.095.452l1.574,3.582H8.912a1.123,1.123,0,0,0,0,2.246h25.8a1.123,1.123,0,0,0,0-2.246H33.244l1.572-3.582a1.131,1.131,0,0,0,.095-.451v-5.876a1.123,1.123,0,1,0-2.246,0v4.753H10.952V170.485H32.665v4.75a1.123,1.123,0,1,0,2.246,0v-5.873a1.133,1.133,0,0,0-.095-.451l-1.572-3.582h1.464A1.123,1.123,0,0,0,35.83,164.205Zm-3.762,28.113-1.277,2.911H12.828l-1.279-2.911Zm-20.52-24.079,1.279-2.911H30.791l1.277,2.911Z" transform="translate(0 -139.979)" fill="#fff"/>
    <path id="Caminho_134" data-name="Caminho 134" d="M11.71,98.832a3.921,3.921,0,1,0-3.921-3.921A3.925,3.925,0,0,0,11.71,98.832Zm0-5.6a1.675,1.675,0,1,1-1.675,1.675A1.677,1.677,0,0,1,11.71,93.236Z" transform="translate(0 -80.772)" fill="#fff"/>
    <path id="Caminho_135" data-name="Caminho 135" d="M57.912,17.936a3.923,3.923,0,1,0-3.921-3.924A3.927,3.927,0,0,0,57.912,17.936Zm0-5.6a1.677,1.677,0,1,1-1.675,1.675A1.677,1.677,0,0,1,57.912,12.337Z" transform="translate(-41.014 -8.958)" fill="#fff"/>
    <path id="Caminho_136" data-name="Caminho 136" d="M91.832,304.832c0,3.862,2.013,6.888,4.583,6.888s4.58-3.025,4.58-6.888-2.012-6.888-4.58-6.888S91.832,300.97,91.832,304.832Zm6.917,0c0,2.657-1.232,4.642-2.334,4.642s-2.337-1.985-2.337-4.642,1.234-4.642,2.337-4.642S98.749,302.175,98.749,304.832Z" transform="translate(-74.605 -264.486)" fill="#fff"/>
    <path id="Caminho_137" data-name="Caminho 137" d="M305.6,18.865c-1.418-1.117-2.538-2-2.538-6.117V7.271a2.545,2.545,0,0,0,1.42-2.281V2.543A2.546,2.546,0,0,0,301.94,0H291.776a2.545,2.545,0,0,0-2.543,2.543V4.99a2.545,2.545,0,0,0,1.42,2.281v5.477c0,4.116-1.12,5-2.537,6.115-1.684,1.327-3.593,2.832-3.593,8.69V53.979A3.521,3.521,0,0,0,288.04,57.5h17.637a3.521,3.521,0,0,0,3.517-3.517V27.553C309.194,21.7,307.285,20.192,305.6,18.865ZM291.48,2.543a.3.3,0,0,1,.3-.3H301.94a.3.3,0,0,1,.3.3V4.99a.3.3,0,0,1-.3.3H291.776a.3.3,0,0,1-.3-.3Zm15.468,51.437a1.288,1.288,0,0,1-1.271,1.271H288.04a1.288,1.288,0,0,1-1.271-1.271V46.556h3.438a9.9,9.9,0,0,0,13.3,0h3.438v7.424Zm0-9.67H303.06a1.123,1.123,0,0,0-.794.329,7.649,7.649,0,0,1-10.816,0,1.123,1.123,0,0,0-.794-.329h-3.887v-12.7h3.887a1.123,1.123,0,0,0,.794-.329,7.649,7.649,0,0,1,10.816,0,1.123,1.123,0,0,0,.794.329h3.887Zm0-14.948H303.51a9.9,9.9,0,0,0-13.3,0h-3.438V27.553c0-4.768,1.269-5.768,2.738-6.925,1.591-1.253,3.393-2.674,3.393-7.88V7.533h7.918v5.215c0,5.206,1.8,6.627,3.393,7.881,1.469,1.158,2.737,2.158,2.737,6.924v1.809Z" transform="translate(-245.658 0)" fill="#fff"/>
    <path id="Caminho_138" data-name="Caminho 138" d="M345.94,353.02H334.484a1.123,1.123,0,0,0,0,2.246H345.94a1.123,1.123,0,0,0,0-2.246Z" transform="translate(-289.011 -313.377)" fill="#fff"/>
    <path id="Caminho_139" data-name="Caminho 139" d="M334.484,303.018a1.123,1.123,0,0,0,0,2.246H345.94a1.123,1.123,0,0,0,0-2.246Z" transform="translate(-289.011 -268.99)" fill="#fff"/>
    <path id="Caminho_140" data-name="Caminho 140" d="M230.429,348.839a1.124,1.124,0,1,0,1.123,1.125v0A1.122,1.122,0,0,0,230.429,348.839Z" transform="translate(-196.641 -309.666)" fill="#fff"/>
  </g>
</svg>
