<svg xmlns="http://www.w3.org/2000/svg" width="26.842" height="24.17" viewBox="0 0 26.842 24.17">
  <g id="airport-03" transform="translate(-2.41 -4.68)">
    <path id="Caminho_181" data-name="Caminho 181" d="M11.823,24.991l0,0L9.053,26.621l-2.476-.6L2.91,27.811l5.563,2.064a1.14,1.14,0,0,0,.887-.05l5.708-2.847a.422.422,0,0,1,.62.444l-.923,5.029a.388.388,0,0,0,.525.435l.792-.308a3.312,3.312,0,0,0,1.833-1.784l2.6-6.111a.381.381,0,0,1,.19-.2l6.242-3.2a1.02,1.02,0,0,0,.267-1.607c-1.055-1.114-3.019-2.005-6.337,0l-4.065,2.39" transform="translate(0 -7.277)" fill="none" stroke="#231f20" stroke-linecap="round" stroke-linejoin="round" stroke-width="1"/>
    <path id="Caminho_182" data-name="Caminho 182" d="M24.426,10.413c0,4.1-5.233,8.564-5.233,8.564s-5.233-4.4-5.233-8.564a5.233,5.233,0,1,1,10.466,0Z" transform="translate(-6.048)" fill="none" stroke="#231f20" stroke-linecap="round" stroke-linejoin="round" stroke-width="1"/>
    <path id="Caminho_183" data-name="Caminho 183" d="M24.96,13.54a2.63,2.63,0,1,1-2.63-2.63A2.629,2.629,0,0,1,24.96,13.54Z" transform="translate(-9.19 -3.136)" fill="none" stroke="#231f20" stroke-linecap="round" stroke-linejoin="round" stroke-width="1"/>
    <line id="Linha_12" data-name="Linha 12" x1="6.727" y2="3.341" transform="translate(6.414 23.377)" fill="none" stroke="#231f20" stroke-linecap="round" stroke-linejoin="round" stroke-width="1"/>
    <line id="Linha_13" data-name="Linha 13" x1="6.672" y2="3.368" transform="translate(21.908 15.605)" fill="none" stroke="#231f20" stroke-linecap="round" stroke-linejoin="round" stroke-width="1"/>
    <line id="Linha_14" data-name="Linha 14" x1="3.44" y2="1.707" transform="translate(8.808 26.473)" fill="none" stroke="#231f20" stroke-linecap="round" stroke-linejoin="round" stroke-width="1"/>
    <line id="Linha_15" data-name="Linha 15" x1="4.653" y2="2.354" transform="translate(21.27 19.638)" fill="none" stroke="#231f20" stroke-linecap="round" stroke-linejoin="round" stroke-width="1"/>
  </g>
</svg>
