<svg id="Grupo_58" data-name="Grupo 58" xmlns="http://www.w3.org/2000/svg" xmlns:xlink="http://www.w3.org/1999/xlink" width="25.885" height="31.588" viewBox="0 0 25.885 31.588">
  <defs>
    <clipPath id="clip-path">
      <rect id="Retângulo_5" data-name="Retângulo 5" width="23.801" height="24.569" fill="none" stroke="#fff" stroke-width="2"/>
    </clipPath>
  </defs>
  <g id="Grupo_8" data-name="Grupo 8" transform="translate(0 7.02)">
    <g id="Grupo_7" data-name="Grupo 7" transform="translate(0 0)" clip-path="url(#clip-path)">
      <path id="Caminho_14" data-name="Caminho 14" d="M6.9,4.6A7.768,7.768,0,0,1,12.674,2a8.17,8.17,0,0,1,7.964,8.362v2.6a12.753,12.753,0,0,0,2.709,8.433H2A12.753,12.753,0,0,0,4.709,12.96v-2.6a8.709,8.709,0,0,1,.583-3.146" transform="translate(-0.773 -0.773)" fill="none" stroke="#fff" stroke-linecap="round" stroke-linejoin="round" stroke-width="2"/>
      <path id="Caminho_15" data-name="Caminho 15" d="M19.668,34.472a1.234,1.234,0,1,1-2.112.02" transform="translate(-6.717 -13.32)" fill="none" stroke="#fff" stroke-linecap="round" stroke-linejoin="round" stroke-width="2"/>
    </g>
  </g>
  <ellipse id="Elipse_2" data-name="Elipse 2" cx="8.555" cy="8.555" rx="8.555" ry="8.555" transform="translate(8.775)" fill="#e21737"/>
  <text id="_2" data-name="2" transform="translate(14.478 10.148)" fill="#fff" font-size="8" font-family="BloggerSans-Bold, Blogger Sans" font-weight="700" letter-spacing="-0.04em"><tspan x="0" y="0">2</tspan></text>
</svg>
