<svg xmlns="http://www.w3.org/2000/svg" xmlns:xlink="http://www.w3.org/1999/xlink" width="126.203" height="99.95" viewBox="0 0 126.203 99.95">
  <defs>
    <clipPath id="clip-path">
      <rect id="Retângulo_72" data-name="Retângulo 72" width="126.203" height="99.95" transform="translate(-5 -4)" fill="#fff"/>
    </clipPath>
  </defs>
  <g id="Grupo_120" data-name="Grupo 120" transform="translate(5 4)" clip-path="url(#clip-path)">
    <path id="Caminho_183" data-name="Caminho 183" d="M63.028,260.245a2.8,2.8,0,1,1-2.8,2.8,2.8,2.8,0,0,1,2.8-2.8m37.8,10.3c.143-4.7,7.7-5.133,12.079-2.481l-1.618,3.182a6.449,6.449,0,0,0-4.476-1.4c-1.576.129-1.746,1.844.809,1.779,3.99-.1,6.143,2,5.931,4.691-.342,4.352-7.2,6.133-13.211,2.319l2.211-3.236c1.672.961,3.338,1.818,5.015,1.618,1.74-.208,2.619-1.612-.485-1.941-4.228-.449-6.338-1.8-6.255-4.529M67.861,280.724v-13.4H72.74v1.88c1.893-3.14,9.253-3.187,9.254,1.717v9.8H77.131l-.054-6.739c-.022-2.695-1-2.949-2.323-2.8-1.1.123-2.078.522-2.078,2.8v6.739Zm-7.368-13.643h5.069v13.643H60.494ZM35.777,280.724v-13.4h4.879v1.88c1.461-2.439,7.1-3.629,8.715.153,2.3-3.437,9.027-3.28,9.024,1.39l-.005,9.978H53.218v-7.332c0-1.97-.336-2.158-1.991-2.085-1.355.06-1.663,1.184-1.669,2.459l-.033,6.958H44.661l-.054-6.739c-.021-2.695-.613-2.924-1.937-2.8s-1.885.306-1.885,2.8v6.739Zm-8.8-14.4a7.2,7.2,0,1,1-7.2,7.2,7.2,7.2,0,0,1,7.2-7.2m0,4.637a2.561,2.561,0,1,1-2.562,2.561,2.561,2.561,0,0,1,2.562-2.561M0,280.724V261.747H5.643a30.787,30.787,0,0,1,4.589.292,10.242,10.242,0,0,1,3.092.9,9.653,9.653,0,0,1,3.866,3.433,9.482,9.482,0,0,1,0,9.721,9.674,9.674,0,0,1-3.87,3.434,10.358,10.358,0,0,1-3.124.911,35.714,35.714,0,0,1-5.073.283Zm5.633-5.013V266.76h2.3a10.9,10.9,0,0,1,1.874.138,3.776,3.776,0,0,1,1.263.426,4.2,4.2,0,0,1,1.579,1.62,5.074,5.074,0,0,1,0,4.585,4.208,4.208,0,0,1-1.581,1.62,3.819,3.819,0,0,1-1.276.43,12.67,12.67,0,0,1-2.072.133Zm84.9-9.384a7.2,7.2,0,1,1-7.2,7.2,7.2,7.2,0,0,1,7.2-7.2m0,4.637a2.561,2.561,0,1,1-2.561,2.561,2.561,2.561,0,0,1,2.561-2.561m8.7-10.687a2.723,2.723,0,0,1,2.488,1.616,3.9,3.9,0,0,1,.155,2.446c-.3,1.2-1.317,2.374-3.45,3.487l-.589-.8a6.136,6.136,0,0,0,1.02-.97c.31-.469-.1-.354-.437-.46a2.723,2.723,0,0,1,.813-5.323" transform="translate(0.42 -190.194)" fill="#fff" fill-rule="evenodd"/>
    <path id="Caminho_184" data-name="Caminho 184" d="M427.042,285.285a1.215,1.215,0,0,1,.582.153,1.092,1.092,0,0,1,.442.438,1.207,1.207,0,0,1,.159.594,1.191,1.191,0,0,1-.157.588,1.1,1.1,0,0,1-.437.438,1.188,1.188,0,0,1-1.178,0,1.1,1.1,0,0,1-.438-.438,1.188,1.188,0,0,1-.157-.588,1.2,1.2,0,0,1,.159-.594,1.092,1.092,0,0,1,.443-.438,1.213,1.213,0,0,1,.582-.153m0,.2a1.012,1.012,0,0,0-.486.128.919.919,0,0,0-.369.365.984.984,0,0,0,0,.985.93.93,0,0,0,.366.366.984.984,0,0,0,.982,0,.922.922,0,0,0,.365-.366.989.989,0,0,0,0-.985.914.914,0,0,0-.369-.365,1.013,1.013,0,0,0-.484-.128m-.52,1.642V285.85h.438a1.079,1.079,0,0,1,.324.035.319.319,0,0,1,.161.123.33.33,0,0,1,.059.187.338.338,0,0,1-.1.243.394.394,0,0,1-.264.116.341.341,0,0,1,.109.067,1.51,1.51,0,0,1,.188.253l.155.249h-.251l-.113-.2a1.03,1.03,0,0,0-.215-.3.263.263,0,0,0-.165-.044h-.12v.541Zm.206-.716h.249a.4.4,0,0,0,.244-.054.183.183,0,0,0,.034-.242.188.188,0,0,0-.087-.066.638.638,0,0,0-.207-.022h-.233Z" transform="translate(-311.357 -208.526)" fill="#fff"/>
    <path id="Caminho_185" data-name="Caminho 185" d="M180.554,18.178,198.242.552a1.9,1.9,0,0,1,2.685,0L217.615,17.3a1.9,1.9,0,0,1,0,2.686L199.923,37.614ZM196.4,15.05a4.747,4.747,0,1,1-.012,6.713,4.747,4.747,0,0,1,.012-6.713" transform="translate(-131.766 0.336)" fill="#fff" fill-rule="evenodd"/>
    <path id="Caminho_186" data-name="Caminho 186" d="M129.688,88.427a4.747,4.747,0,1,1-.012,6.713,4.747,4.747,0,0,1,.012-6.713m-13.9.043a4.747,4.747,0,1,1-.012,6.713,4.747,4.747,0,0,1,.012-6.713m-7.556,1.766L125.922,72.61l19.369,19.437L127.6,109.673a1.9,1.9,0,0,1-2.685,0L108.23,92.922a1.9,1.9,0,0,1,0-2.686" transform="translate(-78.413 -52.823)" fill="#fff" fill-rule="evenodd"/>
    <path id="Caminho_187" data-name="Caminho 187" d="M202.542,205.726v-2.372h-.9v-.414h2.277v.414h-.909v2.372Zm1.685,0v-2.787h.684l.7,2.225.68-2.225h.671v2.787h-.425v-2.339l-.718,2.339h-.42l-.749-2.372v2.372Z" transform="translate(-147.203 -148.239)" fill="#fff"/>
  </g>
</svg>
