<svg xmlns="http://www.w3.org/2000/svg" xmlns:xlink="http://www.w3.org/1999/xlink" width="27.125" height="28" viewBox="0 0 27.125 28">
  <defs>
    <clipPath id="clip-path">
      <rect id="Retângulo_5" data-name="Retângulo 5" width="27.125" height="28" fill="none" stroke="#0b648f" stroke-width="3"/>
    </clipPath>
  </defs>
  <g id="Grupo_8" data-name="Grupo 8" transform="translate(0 0)">
    <g id="Grupo_7" data-name="Grupo 7" transform="translate(0 0)" clip-path="url(#clip-path)">
      <path id="Caminho_14" data-name="Caminho 14" d="M7.589,4.96A8.852,8.852,0,0,1,14.164,2a9.311,9.311,0,0,1,9.076,9.529v2.962A14.534,14.534,0,0,0,26.328,24.1H2a14.534,14.534,0,0,0,3.087-9.611V11.529a9.925,9.925,0,0,1,.664-3.585" transform="translate(-0.601 -0.601)" fill="none" stroke="#0b648f" stroke-linecap="round" stroke-linejoin="round" stroke-width="3"/>
      <path id="Caminho_15" data-name="Caminho 15" d="M19.987,34.472a1.406,1.406,0,1,1-2.407.023" transform="translate(-5.227 -10.366)" fill="none" stroke="#0b648f" stroke-linecap="round" stroke-linejoin="round" stroke-width="3"/>
    </g>
  </g>
</svg>
