<svg id="Grupo_6" data-name="Grupo 6" xmlns="http://www.w3.org/2000/svg" xmlns:xlink="http://www.w3.org/1999/xlink" width="21.118" height="26.181" viewBox="0 0 21.118 26.181">
  <defs>
    <clipPath id="clip-path">
      <rect id="Retângulo_4" data-name="Retângulo 4" width="21.118" height="26.181" fill="none" stroke="#707070" stroke-width="3"/>
    </clipPath>
  </defs>
  <g id="Grupo_5" data-name="Grupo 5" clip-path="url(#clip-path)">
    <path id="Caminho_10" data-name="Caminho 10" d="M12.091,16.226h0a3.273,3.273,0,1,1,4.628,0A3.272,3.272,0,0,1,12.091,16.226Z" transform="translate(-3.846 -3.676)" fill="none" stroke="#707070" stroke-linecap="round" stroke-linejoin="round" stroke-width="3"/>
    <path id="Caminho_11" data-name="Caminho 11" d="M16.133,2a9.255,9.255,0,0,1,9.242,9.5c-.35,8.4-9.242,14.059-9.242,14.059" transform="translate(-5.574 -0.691)" fill="none" stroke="#707070" stroke-linecap="round" stroke-linejoin="round" stroke-width="3"/>
    <path id="Caminho_12" data-name="Caminho 12" d="M2.913,21.6q.174.553.389,1.083c2.386,5.911,8.263,9.653,8.263,9.653" transform="translate(-1.006 -7.461)" fill="none" stroke="#707070" stroke-linecap="round" stroke-linejoin="round" stroke-width="3"/>
    <path id="Caminho_13" data-name="Caminho 13" d="M11.25,2a9.255,9.255,0,0,0-9.242,9.5" transform="translate(-0.691 -0.691)" fill="none" stroke="#707070" stroke-linecap="round" stroke-linejoin="round" stroke-width="3"/>
  </g>
</svg>
