<svg xmlns="http://www.w3.org/2000/svg" width="116.917" height="27.281" viewBox="0 0 116.917 27.281">
  <g id="Grupo_92" data-name="Grupo 92" transform="translate(-226 -100.337)">
    <path id="Caminho_109" data-name="Caminho 109" d="M47.271,260.245a2.1,2.1,0,1,1-2.1,2.1,2.1,2.1,0,0,1,2.1-2.1m28.35,7.725c.107-3.528,5.774-3.85,9.059-1.86L83.467,268.5a4.837,4.837,0,0,0-3.357-1.052c-1.182.1-1.31,1.383.607,1.334,2.993-.076,4.608,1.5,4.449,3.519-.256,3.264-5.4,4.6-9.908,1.739l1.658-2.427a6.413,6.413,0,0,0,3.761,1.213c1.305-.156,1.964-1.209-.364-1.456-3.171-.336-4.753-1.348-4.691-3.4M50.9,275.6V265.553h3.659v1.41c1.42-2.355,6.94-2.39,6.941,1.288V275.6H57.849l-.04-5.054c-.016-2.021-.751-2.211-1.742-2.1-.822.093-1.558.391-1.558,2.1V275.6Zm-5.526-10.232h3.8V275.6h-3.8ZM26.833,275.6V265.553h3.659v1.41c1.1-1.829,5.322-2.722,6.536.115,1.725-2.578,6.77-2.46,6.768,1.042l0,7.484H39.914v-5.5c0-1.477-.252-1.619-1.493-1.564-1.016.045-1.247.888-1.251,1.844l-.025,5.219H33.5l-.041-5.054c-.016-2.021-.46-2.193-1.453-2.1s-1.414.229-1.414,2.1V275.6Zm-6.6-10.8a5.4,5.4,0,1,1-5.4,5.4,5.4,5.4,0,0,1,5.4-5.4m0,3.478a1.921,1.921,0,1,1-1.921,1.921,1.921,1.921,0,0,1,1.921-1.921M0,275.6V261.371H4.232a23.092,23.092,0,0,1,3.442.219,7.68,7.68,0,0,1,2.319.677,7.24,7.24,0,0,1,2.9,2.575,7.111,7.111,0,0,1,0,7.291,7.255,7.255,0,0,1-2.9,2.575,7.77,7.77,0,0,1-2.343.684,26.791,26.791,0,0,1-3.8.212Zm4.225-3.76v-6.713H5.954a8.183,8.183,0,0,1,1.406.1,2.832,2.832,0,0,1,.947.319,3.148,3.148,0,0,1,1.184,1.215,3.806,3.806,0,0,1,0,3.439,3.156,3.156,0,0,1-1.186,1.215,2.864,2.864,0,0,1-.957.322,9.494,9.494,0,0,1-1.554.1ZM67.9,264.806a5.4,5.4,0,1,1-5.4,5.4,5.4,5.4,0,0,1,5.4-5.4m0,3.478a1.921,1.921,0,1,1-1.921,1.921,1.921,1.921,0,0,1,1.921-1.921m6.525-8.015a2.042,2.042,0,0,1,1.866,1.212,2.929,2.929,0,0,1,.116,1.835c-.228.9-.987,1.78-2.587,2.616l-.441-.6a4.6,4.6,0,0,0,.765-.727c.233-.352-.071-.266-.327-.345a2.043,2.043,0,0,1,.609-3.992" transform="translate(257.74 -147.986)" fill="#00629f" fill-rule="evenodd"/>
    <g id="Grupo_91" data-name="Grupo 91" transform="translate(226 100.337)">
      <path id="Caminho_110" data-name="Caminho 110" d="M180.554,8.677,189,.263a.909.909,0,0,1,1.282,0l7.966,7.994a.909.909,0,0,1,0,1.282L189.8,17.955Zm7.566-1.493a2.266,2.266,0,1,1-.006,3.2,2.266,2.266,0,0,1,.006-3.2" transform="translate(-171.235 0)" fill="#dd001d" fill-rule="evenodd"/>
      <path id="Caminho_111" data-name="Caminho 111" d="M118.185,80.16a2.266,2.266,0,1,1-.006,3.2,2.266,2.266,0,0,1,.006-3.2m-6.634.02a2.266,2.266,0,1,1-.006,3.2,2.266,2.266,0,0,1,.006-3.2m-3.607.843,8.443-8.414,9.246,9.278L117.189,90.3a.909.909,0,0,1-1.282,0l-7.966-7.994a.909.909,0,0,1,0-1.282" transform="translate(-107.678 -63.325)" fill="#00629f" fill-rule="evenodd"/>
      <path id="Caminho_112" data-name="Caminho 112" d="M202.07,204.269v-1.132h-.431v-.2h1.087v.2h-.434v1.132Zm.8,0v-1.33h.326l.336,1.062.325-1.062h.32v1.33h-.2v-1.116l-.343,1.116h-.2l-.358-1.132v1.132Z" transform="translate(-189.624 -176.989)" fill="#00629f"/>
    </g>
  </g>
</svg>
