<svg id="Grupo_99" data-name="Grupo 99" xmlns="http://www.w3.org/2000/svg" xmlns:xlink="http://www.w3.org/1999/xlink" width="46.694" height="45.046" viewBox="0 0 46.694 45.046">
  <defs>
    <clipPath id="clip-path">
      <rect id="Retângulo_63" data-name="Retângulo 63" width="46.694" height="45.046" fill="none" stroke="#fff" stroke-width="1"/>
    </clipPath>
  </defs>
  <g id="Grupo_98" data-name="Grupo 98" clip-path="url(#clip-path)">
    <path id="Caminho_130" data-name="Caminho 130" d="M39.657,42.541H9.883A7.883,7.883,0,0,1,2,34.658V4.252A2.252,2.252,0,0,1,4.252,2H31.694a2.252,2.252,0,0,1,2.252,2.252v25.9" transform="translate(0.252 0.252)" fill="none" stroke="#fff" stroke-linecap="round" stroke-linejoin="round" stroke-width="4"/>
    <path id="Caminho_131" data-name="Caminho 131" d="M30.368,18.346V35.358a5.121,5.121,0,1,0,10.241,0V20.6a2.252,2.252,0,0,0-2.252-2.252H36.828" transform="translate(3.831 2.314)" fill="none" stroke="#fff" stroke-linecap="round" stroke-linejoin="round" stroke-width="4"/>
    <line id="Linha_23" data-name="Linha 23" x2="5.73" transform="translate(9.63 13.801)" fill="none" stroke="#fff" stroke-linecap="round" stroke-linejoin="round" stroke-width="4"/>
    <line id="Linha_24" data-name="Linha 24" x2="16.283" transform="translate(9.63 21.627)" fill="none" stroke="#fff" stroke-linecap="round" stroke-linejoin="round" stroke-width="4"/>
    <line id="Linha_25" data-name="Linha 25" x2="16.57" transform="translate(9.63 29.452)" fill="none" stroke="#fff" stroke-linecap="round" stroke-linejoin="round" stroke-width="4"/>
  </g>
</svg>
