<svg xmlns="http://www.w3.org/2000/svg" xmlns:xlink="http://www.w3.org/1999/xlink" width="56.642" height="42.266" viewBox="0 0 56.642 42.266">
  <defs>
    <clipPath id="clip-path">
      <rect id="Ret창ngulo_62" data-name="Ret창ngulo 62" width="56.642" height="42.266" fill="none" stroke="#fff" stroke-width="3"/>
    </clipPath>
  </defs>
  <g id="Grupo_97" data-name="Grupo 97" transform="translate(0 0)">
    <g id="Grupo_96" data-name="Grupo 96" transform="translate(0 0)" clip-path="url(#clip-path)">
      <rect id="Ret창ngulo_61" data-name="Ret창ngulo 61" width="50.978" height="36.602" rx="2" transform="translate(2.832 2.832)" fill="none" stroke="#fff" stroke-linecap="round" stroke-linejoin="round" stroke-width="3"/>
      <path id="Caminho_124" data-name="Caminho 124" d="M38.771,31.451H29.34A12.263,12.263,0,0,1,41.6,19.188v9.431A2.831,2.831,0,0,1,38.771,31.451Z" transform="translate(12.207 7.983)" fill="none" stroke="#fff" stroke-linecap="round" stroke-linejoin="round" stroke-width="3"/>
      <path id="Caminho_125" data-name="Caminho 125" d="M38.771,2H29.34A12.263,12.263,0,0,0,41.6,14.263V4.832A2.831,2.831,0,0,0,38.771,2Z" transform="translate(12.207 0.832)" fill="none" stroke="#fff" stroke-linecap="round" stroke-linejoin="round" stroke-width="3"/>
      <path id="Caminho_126" data-name="Caminho 126" d="M4.832,31.451h9.431A12.263,12.263,0,0,0,2,19.188v9.431A2.831,2.831,0,0,0,4.832,31.451Z" transform="translate(0.832 7.983)" fill="none" stroke="#fff" stroke-linecap="round" stroke-linejoin="round" stroke-width="3"/>
      <path id="Caminho_127" data-name="Caminho 127" d="M4.832,2h9.431A12.263,12.263,0,0,1,2,14.263V4.832A2.831,2.831,0,0,1,4.832,2Z" transform="translate(0.832 0.832)" fill="none" stroke="#fff" stroke-linecap="round" stroke-linejoin="round" stroke-width="3"/>
      <path id="Caminho_128" data-name="Caminho 128" d="M20.886,17.591H20.54a4.539,4.539,0,0,1,0-9.078H25.4" transform="translate(6.658 3.542)" fill="none" stroke="#fff" stroke-linecap="round" stroke-linejoin="round" stroke-width="3"/>
      <path id="Caminho_129" data-name="Caminho 129" d="M20.446,14.924h1.473a4.539,4.539,0,1,1,0,9.078h-4.86" transform="translate(7.098 6.209)" fill="none" stroke="#fff" stroke-linecap="round" stroke-linejoin="round" stroke-width="3"/>
    </g>
  </g>
</svg>
