<svg xmlns="http://www.w3.org/2000/svg" width="16.001" height="17" viewBox="0 0 16.001 17">
  <g id="Vector_Smart_Object5" data-name="Vector Smart Object5" transform="translate(-54 -796)">
    <g id="Vector_Smart_Object5-2" data-name="Vector Smart Object5" transform="translate(-1200.137 0.661)">
      <g id="Grupo_11" data-name="Grupo 11">
        <path id="Caminho_51" data-name="Caminho 51" d="M1269.781,802.08v10.26h-.72V802.08Zm-14.066,5.6v4.657h-.722v-5.465l.722.807Zm4.689-3.209v7.866h-.722v-7.182l.722-.684Zm4.687-.514v8.379h-.721v-8.55Z" fill="#3b3b3b"/>
        <path id="Caminho_52" data-name="Caminho 52" d="M1265.916,802.569l1.932-3.052,1.479.843.067-3.847-3.549,1.867,1.479.843-1.7,2.685-5.277-1.253-5.193,4.924.431.409,4.949-4.693,5.378,1.274Zm.086.726-5.243-1.242-4.916,4.662-.255.241-.254-.241-.943-.893-.256-.242.255-.241,5.594-5.3.144-.136.2.048,4.956,1.174,1.053-1.662-1.4-.8-.535-.3.545-.286,4.644-2.444.545-.287-.011.59-.088,5.037-.01.591-.534-.3-1.4-.8-1.7,2.681-.138.218Z" fill="#3b3b3b" fill-rule="evenodd"/>
      </g>
    </g>
    <path id="Color_Overlay" data-name="Color Overlay" d="M68.924,813V802.741h.721V813Zm-4.69,0v-8.549l.721.17V813Zm-4.688,0v-7.182l.722-.683V813Zm-4.69,0v-5.464l.723.807V813Zm.342-5.625-.942-.893L54,806.239l.255-.24,5.594-5.3.144-.136.2.048,4.956,1.174,1.053-1.662-1.4-.8-.535-.3.544-.286,4.644-2.444L70,796l-.011.589-.088,5.036-.01.591-.534-.3-1.4-.8-1.7,2.681-.138.218-.257-.061-5.243-1.242-4.916,4.662-.256.24Zm-.177-1.136.431.41,4.949-4.694,5.378,1.274,1.932-3.052,1.48.842.067-3.847-3.549,1.867,1.48.842-1.7,2.686-5.277-1.253Z" fill="#3b3b3b"/>
  </g>
</svg>
