<svg xmlns="http://www.w3.org/2000/svg" width="20" height="19.001" viewBox="0 0 20 19.001">
  <g id="Vector_Smart_Object1" data-name="Vector Smart Object1" transform="translate(-54 -545)">
    <g id="Vector_Smart_Object1-2" data-name="Vector Smart Object1" transform="translate(-531.334 -1602.122)">
      <g id="Grupo_1" data-name="Grupo 1">
        <path id="Caminho_1" data-name="Caminho 1" d="M590.929,2157.785h-3.194v-3.49h3.594v3.49Zm-2.395-.775h2v-1.938h-2Z" fill="#3b3b3b"/>
        <path id="Caminho_2" data-name="Caminho 2" d="M586.31,2149.448a.175.175,0,0,0-.176.178v15.536a.187.187,0,0,0,.055.133h0a.177.177,0,0,0,.121.052h18.049a.182.182,0,0,0,.122-.052.191.191,0,0,0,.053-.133v-15.536a.176.176,0,0,0-.053-.129.182.182,0,0,0-.122-.049h-4.216v-.775h4.216a.99.99,0,0,1,.691.282.94.94,0,0,1,.284.672v15.536a.945.945,0,0,1-.285.675.978.978,0,0,1-.69.285H586.31a.98.98,0,0,1-.69-.285h0a.947.947,0,0,1-.283-.675v-15.536a.94.94,0,0,1,.284-.672.99.99,0,0,1,.691-.282h4.215v.775H586.31Zm12.233,0v-.775h-6.418v.775h6.418Z" fill="#3b3b3b"/>
        <path id="Caminho_3" data-name="Caminho 3" d="M596.728,2157.785h-3.194v-3.49h3.594v3.49Zm-2.393-.775h1.993v-1.938h-1.993Z" fill="#3b3b3b"/>
        <path id="Caminho_4" data-name="Caminho 4" d="M602.529,2157.785h-3.194v-3.49h3.594v3.49Zm-2.395-.775h1.994v-1.938h-1.994Z" fill="#3b3b3b"/>
        <path id="Caminho_5" data-name="Caminho 5" d="M590.929,2163.408h-3.194v-3.491h3.594v3.491Zm-2.395-.776h2v-1.938h-2Z" fill="#3b3b3b"/>
        <path id="Caminho_6" data-name="Caminho 6" d="M596.728,2163.408h-3.194v-3.491h3.594v3.491Zm-2.393-.776h1.993v-1.938h-1.993Z" fill="#3b3b3b"/>
        <path id="Caminho_7" data-name="Caminho 7" d="M602.529,2163.408h-3.194v-3.491h3.594v3.491Zm-2.395-.776h1.994v-1.938h-1.994Z" fill="#3b3b3b"/>
        <path id="Caminho_8" data-name="Caminho 8" d="M599.744,2147.51a.4.4,0,0,0-.8,0v3.1a.4.4,0,0,0,.8,0Z" fill="#3b3b3b"/>
        <path id="Caminho_9" data-name="Caminho 9" d="M591.726,2147.51a.4.4,0,0,0-.8,0v3.1a.4.4,0,0,0,.8,0Z" fill="#3b3b3b"/>
      </g>
    </g>
    <path id="Color_Overlay" data-name="Color Overlay" d="M54.976,564a.981.981,0,0,1-.69-.284h0a.949.949,0,0,1-.284-.675V547.5a.941.941,0,0,1,.284-.671.986.986,0,0,1,.691-.282H59.19v.775H54.976a.177.177,0,0,0-.176.178v15.537a.188.188,0,0,0,.056.133h0a.178.178,0,0,0,.121.051H73.024a.184.184,0,0,0,.122-.051.194.194,0,0,0,.053-.133V547.5a.176.176,0,0,0-.053-.129.182.182,0,0,0-.122-.049H68.808v-.775h4.216a.989.989,0,0,1,.691.282A.94.94,0,0,1,74,547.5v15.537a.944.944,0,0,1-.285.675.979.979,0,0,1-.689.284Zm16.218-2.714H68V557.8h3.595v3.49ZM68.8,560.51h1.993v-1.939H68.8Zm-3.406.776H62.2V557.8h3.595v3.49ZM63,560.51h1.993v-1.939H63Zm-3.406.776H56.4V557.8h3.595v3.49ZM57.2,560.51h2v-1.939h-2Zm13.994-4.846H68v-3.489h3.595v3.489Zm-2.394-.776h1.993V552.95H68.8Zm-3.406.776H62.2v-3.489h3.595v3.489ZM63,554.888h1.993V552.95H63Zm-3.406.776H56.4v-3.489h3.595v3.489Zm-2.394-.776h2V552.95h-2Zm10.409-6.4v-3.1a.4.4,0,0,1,.8,0v3.1a.4.4,0,0,1-.8,0Zm-8.017,0v-3.1a.4.4,0,0,1,.8,0v3.1a.4.4,0,0,1-.8,0Zm2.52-1.164h-1.32v-.775h6.418v.775Z" fill="#3b3b3b"/>
  </g>
</svg>
