<?xml version="1.0" encoding="utf-8"?>
<!-- Generator: Adobe Illustrator 27.9.0, SVG Export Plug-In . SVG Version: 6.00 Build 0)  -->
<svg version="1.1" id="Layer_1" xmlns="http://www.w3.org/2000/svg" xmlns:xlink="http://www.w3.org/1999/xlink" x="0px" y="0px"
	 viewBox="0 0 398 145" style="enable-background:new 0 0 398 145;" xml:space="preserve">
<style type="text/css">
	.st0{fill:#008348;}
	.st1{fill:#EF3E42;}
	.st2{clip-path:url(#SVGID_00000104707277803028791220000004223236493021223075_);}
	.st3{fill:none;stroke:#008348;stroke-width:2;stroke-miterlimit:10;}
	.st4{fill:#EF3E42;stroke:#EF3E42;stroke-width:2;stroke-linejoin:round;stroke-miterlimit:10;}
	.st5{fill:#FFFFFF;}
	.st6{clip-path:url(#SVGID_00000053547537207517657590000002007971996496798895_);}
	.st7{fill:none;stroke:#FFFFFF;stroke-width:2;stroke-miterlimit:10;}
	.st8{clip-path:url(#SVGID_00000142860308941838008320000011932551720899872387_);}
	.st9{fill:#BFBDBC;}
	.st10{fill:#E21F26;}
	.st11{fill:#077E40;}
	.st12{fill:none;}
</style>
<g>
	<g>
		<path class="st5" d="M88.15,59.08v9.96c-3.11-2.22-5.9-3.33-8.39-3.33c-2.68,0-4.87,0.95-6.57,2.84c-1.7,1.8-2.55,4.2-2.55,7.21
			c0,2.65,0.61,4.92,1.81,6.82c0.62,1.01,1.64,2.32,3.07,3.92c1.42,1.6,3.26,3.53,5.52,5.79c4.15,4.22,6.98,7.86,8.48,10.94
			c1.5,2.97,2.26,6.62,2.26,10.93c0,5.85-1.65,10.67-4.95,14.47c-3.3,3.69-7.54,5.54-12.7,5.54c-4.35,0-8.06-1.19-11.13-3.58v-10.1
			c3.63,2.65,6.93,3.97,9.91,3.97c2.78,0,4.95-0.92,6.52-2.77c1.57-1.85,2.35-4.36,2.35-7.53c0-2.75-0.61-5.21-1.81-7.4
			c-0.62-1.05-1.49-2.25-2.6-3.6c-1.11-1.36-2.5-2.87-4.17-4.54c-2.58-2.55-4.72-4.81-6.42-6.77c-1.7-1.96-2.96-3.68-3.78-5.15
			c-1.57-2.88-2.35-6.5-2.35-10.89c0-5.92,1.54-10.61,4.61-14.07c3.11-3.5,7.27-5.25,12.5-5.25C81.38,56.48,84.85,57.35,88.15,59.08
			z"/>
		<path class="st5" d="M91.01,57.51h33.2v8.93h-11.43v66.79h-10V66.43H91.01V57.51z"/>
		<path class="st5" d="M132.71,57.51h7.94l16.23,75.71h-10.1l-2.84-14.76h-15.01l-2.89,14.76h-9.81L132.71,57.51z M142.47,110.57
			l-2.26-12.06c-1.5-8.21-2.73-16.97-3.68-26.28c-0.46,4.54-1.05,9.15-1.77,13.8c-0.72,4.66-1.57,9.6-2.55,14.83l-1.86,9.71H142.47z
			"/>
		<path class="st5" d="M160.35,57.51h13.44c5.56,0,9.69,1.32,12.41,3.97c3.43,3.43,5.15,8.68,5.15,15.74
			c0,5.43-0.91,9.78-2.72,13.07s-4.41,5.32-7.77,6.11l13.93,36.83h-10.35l-13.88-37.07v37.07h-10.2V57.51z M170.55,91.05
			c3.96,0,6.75-0.92,8.39-2.75c1.63-1.83,2.45-4.92,2.45-9.27c0-2.35-0.17-4.36-0.52-6.03c-0.34-1.67-0.88-3.02-1.62-4.07
			c-0.74-1.05-1.68-1.81-2.84-2.3c-1.16-0.49-2.54-0.74-4.14-0.74h-1.72V91.05z"/>
		<path class="st5" d="M205.75,57.51h8.73l6.67,30.89c0.82,3.86,1.56,7.72,2.23,11.6c0.67,3.87,1.28,7.94,1.84,12.19
			c0.07-0.56,0.11-0.99,0.15-1.3c0.03-0.31,0.07-0.53,0.1-0.66l1.42-8.68l1.27-8.24l1.13-5.44l5.93-30.35h8.83l6.96,75.71h-9.76
			l-1.72-25.7c-0.07-1.31-0.12-2.43-0.17-3.38c-0.05-0.95-0.07-1.73-0.07-2.35l-0.44-10.15l-0.25-9.32c0-0.07-0.01-0.2-0.02-0.42
			c-0.02-0.21-0.04-0.5-0.07-0.86l-0.25,1.52c-0.26,1.8-0.5,3.37-0.71,4.71c-0.21,1.34-0.4,2.47-0.56,3.38l-1.28,6.91l-0.49,2.6
			l-6.38,33.05h-6.87L216,104.68c-0.82-3.76-1.54-7.58-2.18-11.45c-0.64-3.87-1.22-7.94-1.74-12.19l-2.94,52.18h-9.61L205.75,57.51z
			"/>
		<path class="st5" d="M274,116.11h8.73c-0.69,11.93-5.59,17.9-14.71,17.9c-2.71,0-5.04-0.51-6.99-1.52s-3.55-2.58-4.83-4.71
			c-1.27-2.12-2.21-4.82-2.82-8.09c-0.61-3.27-0.91-7.16-0.91-11.67c0-8.96,1.25-15.59,3.75-19.91c2.5-4.31,6.37-6.47,11.6-6.47
			c10.17,0,15.25,8.96,15.25,26.87v1.18h-21.43c0,10.85,2.16,16.28,6.47,16.28C272.04,125.97,274,122.68,274,116.11z M273.51,102.92
			c-0.39-5.33-1-8.83-1.81-10.49c-0.85-1.86-2.22-2.79-4.12-2.79c-1.93,0-3.3,0.93-4.12,2.79c-0.82,1.67-1.42,5.17-1.81,10.49
			H273.51z"/>
		<path class="st5" d="M290.03,68.25h9.37v14.22h5.1v7.45h-5.1v43.3h-9.37v-43.3h-5.15v-7.45h5.15V68.25z"/>
		<path class="st5" d="M308.7,82.47h9.37v6.33c1.6-2.68,3.19-4.56,4.76-5.64c1.57-1.08,3.64-1.7,6.23-1.86v9.81
			c-0.65-0.1-1.21-0.15-1.67-0.15c-3.37,0-5.77,0.87-7.21,2.6c-1.41,1.7-2.11,4.68-2.11,8.92v30.75h-9.37V82.47z"/>
		<path class="st5" d="M337.63,60.89c1.7,0,3.17,0.62,4.41,1.86c1.24,1.24,1.86,2.73,1.86,4.46c0,1.77-0.62,3.27-1.86,4.51
			c-1.24,1.24-2.75,1.86-4.51,1.86s-3.27-0.62-4.51-1.86c-1.21-1.21-1.81-2.73-1.81-4.56c0-1.7,0.62-3.17,1.86-4.41
			C334.4,61.51,335.92,60.89,337.63,60.89z M333.21,82.47h9.42v50.75h-9.42V82.47z"/>
		<path class="st5" d="M369.39,83.45v9.56c-1.31-1.6-2.88-2.4-4.71-2.4c-5.17,0-7.75,5.59-7.75,16.77c0,11.87,2.57,17.8,7.7,17.8
			c1.44,0,3.02-0.64,4.76-1.91v8.78c-2.48,1.31-5,1.96-7.55,1.96c-10.07,0-15.1-8.56-15.1-25.7c0-9.12,1.24-15.85,3.73-20.18
			s6.34-6.5,11.57-6.5C364.56,81.64,367.01,82.24,369.39,83.45z"/>
		<path class="st5" d="M394.44,83.5v8.78c-2.29-1.7-4.69-2.55-7.21-2.55c-0.85,0-1.64,0.15-2.35,0.44c-0.72,0.29-1.35,0.7-1.89,1.2
			s-0.96,1.11-1.28,1.81s-0.47,1.45-0.47,2.23c0,2.42,2.19,5.3,6.57,8.63c1.77,1.37,3.24,2.65,4.41,3.83
			c1.18,1.18,2.08,2.29,2.7,3.33c1.28,2.06,1.91,4.66,1.91,7.8c0,4.54-1.32,8.19-3.97,10.94c-2.62,2.71-6.13,4.07-10.54,4.07
			c-2.71,0-5.46-0.8-8.24-2.4v-9.07c2.71,2.03,5.28,3.04,7.7,3.04c4.28,0,6.42-2.11,6.42-6.33c0-1.57-0.39-2.93-1.18-4.07
			c-0.36-0.56-0.93-1.2-1.72-1.94c-0.78-0.74-1.75-1.56-2.89-2.48c-3.96-3.07-6.64-5.66-8.04-7.75c-1.37-2.16-2.06-4.76-2.06-7.8
			c0-4.09,1.26-7.44,3.78-10.05c2.55-2.58,5.87-3.87,9.95-3.87C388.93,81.29,391.73,82.03,394.44,83.5z"/>
	</g>
</g>
<g>
	<g>
		<defs>
			<rect id="SVGID_00000178897958568099829410000014054944996596382105_" x="-4.89" y="5.58" width="63.56" height="128.72"/>
		</defs>
		<clipPath id="SVGID_00000130625515848847702330000017841678798396825989_">
			<use xlink:href="#SVGID_00000178897958568099829410000014054944996596382105_"  style="overflow:visible;"/>
		</clipPath>
		<g style="clip-path:url(#SVGID_00000130625515848847702330000017841678798396825989_);">
			<path class="st7" d="M36.45,21.55c0.03-0.14,0.08-0.44,0.21-0.94c0.21-1.34,0.3-3.63-0.95-4.76c-1.29-1.16-5.17-2.07-7.45-2.67
				c-2.28-0.6-6.12-1.71-7.81-1.33c-1.65,0.37-2.69,2.42-3.17,3.68c-0.13,0.5-0.23,0.79-0.28,0.92L36.45,21.55z"/>
			<g>
				<path class="st7" d="M49.21,104.17c-0.38-2.79-0.04-9.65-5.78-15.94c-3.3-3.62-3.81-11.75-4.06-16.64
					c-0.25-4.89-3.33-36.39-3.24-37.16c0.45-0.51,1.52-2.43,0.7-4.38c-0.45-1.06-0.94-2.58-1.32-3.73l-1.91,0.35
					c-4.44,0.81-8.98,0.81-13.42,0l-1.91-0.35c-0.38,1.16-0.87,2.67-1.32,3.73c-0.82,1.95,0.25,3.87,0.7,4.38
					c0.09,0.76-2.99,32.27-3.24,37.16c-0.25,4.89-0.76,13.02-4.06,16.64c-5.74,6.29-5.4,13.15-5.78,15.94
					c-0.38,2.8,0.16,73.51,0.21,76.68c0.06,4.48,3.19,7.27,5,7.86c1.51,0.49,32.71,0.49,34.23,0c1.82-0.59,4.94-3.38,5-7.86
					C49.05,177.68,49.59,106.97,49.21,104.17"/>
				<g>
					<polygon class="st4" points="26.76,113.58 34.41,117.62 32.95,109.06 39.14,102.99 30.58,101.74 26.76,93.95 22.93,101.74 
						14.38,102.99 20.57,109.06 19.11,117.62 					"/>
				</g>
			</g>
		</g>
	</g>
</g>
</svg>
